<svg id="SvgjsSvg1001" width="288" height="288" xmlns="http://www.w3.org/2000/svg" version="1.1" xmlns:xlink="http://www.w3.org/1999/xlink" xmlns:svgjs="http://svgjs.com/svgjs"><defs id="SvgjsDefs1002"></defs><g id="SvgjsG1008" transform="matrix(1,0,0,1,0,0)"><svg xmlns="http://www.w3.org/2000/svg" width="288" height="288" version="1.0" viewBox="0 0 1280 1187"><path d="M3150 11510 c-464 -26 -914 -150 -1327 -365 -448 -233 -876 -615-1179 -1050 -338 -485 -531 -982 -621 -1600 -26 -176 -26 -735 0 -925 99 -725
374 -1342 842 -1890 50 -58 431 -455 981 -1020 82 -85 294 -303 469 -485 175
-181 382 -395 460 -475 77 -80 211 -217 296 -305 274 -283 536 -554 920 -950
85 -88 299 -308 474 -490 175 -181 382 -395 460 -475 77 -80 211 -217 296
-305 85 -88 226 -234 314 -325 88 -91 194 -200 235 -243 136 -142 232 -209
377 -259 74 -26 108 -31 214 -35 247 -10 430 61 604 234 71 70 105 105 630
648 160 164 364 376 455 469 309 319 436 451 596 616 87 90 227 234 310 320
84 85 171 175 194 200 23 25 101 106 174 180 72 74 262 270 421 435 160 164
364 376 455 469 309 319 436 451 596 616 87 90 227 234 310 320 84 85 171 175
194 200 46 49 238 247 446 460 589 604 913 1262 1031 2090 25 179 25 740 0
920 -133 948 -579 1748 -1293 2322 -1261 1012 -3122 921 -4399 -215 -97 -87
-196 -185 -473 -472 l-213 -220 -86 90 c-179 186 -501 512 -568 575 -521 484
-1230 817 -1945 914 -107 15 -433 37 -490 34 -14 0 -86 -4 -160 -8z" transform="matrix(.1 0 0 -.1 0 1187)" fill="#0065fc" class="color000 svgShape"></path></svg></g></svg>